<svg xmlns="http://www.w3.org/2000/svg" viewBox="0 0 17.03 24"><defs><style>.cls-1{fill:none;stroke:#86b8c0;stroke-linecap:round;stroke-linejoin:round;}</style></defs><title>Asset 9</title><g id="Layer_2" data-name="Layer 2"><g id="transport"><path id="handset" class="cls-1" d="M3.52,14.46l.06.1.06.11C7.35,21.15,13.76,25,15,23l1.5-2.85a.82.82,0,0,0-.05-.81l0,0c-.21-.41-.4-.42-1.49-1.15-.57-.43-1.18-.89-1.58-1.24a.94.94,0,0,0-1.26,0l-.62.61a1.13,1.13,0,0,1-.8.32c-.89,0-2.59-2.42-3.53-3.9-.27-.42-.49-.77-.61-1s-.32-.57-.54-1c-.8-1.56-2-4.24-1.58-5a1.16,1.16,0,0,1,.68-.53l.84-.22A1,1,0,0,0,6.49,5c-.1-.53-.2-1.28-.28-2-.07-1.31,0-1.49-.23-1.87v0A.84.84,0,0,0,5.29.65L2.08.5C-.25.52-.19,8,3.52,14.46Z"/></g></g></svg>