<svg xmlns="http://www.w3.org/2000/svg" viewBox="0 0 41.83 58.17"><defs><style>.cls-1{fill:none;stroke:#86b8c0;stroke-linecap:round;stroke-linejoin:round;stroke-width:4px;}</style></defs><title>Asset 9</title><g id="Layer_2" data-name="Layer 2"><g id="Layer_1-2" data-name="Layer 1"><g id="Layer_2-2" data-name="Layer 2"><g id="transport"><path id="handset" class="cls-1" d="M9.1,34.84l.15.23.14.26c8.72,15.25,23.8,24.3,26.72,19.6l3.53-6.71a1.93,1.93,0,0,0-.12-1.9h0c-.49-1-.94-1-3.5-2.71-1.35-1-2.78-2.09-3.72-2.91a2.22,2.22,0,0,0-3,0l-1.45,1.43a2.66,2.66,0,0,1-1.89.75c-2.09,0-6.09-5.69-8.3-9.17-.63-1-1.15-1.81-1.43-2.35S15.5,30,15,29c-1.89-3.66-4.71-10-3.72-11.76A2.69,2.69,0,0,1,12.87,16l2-.52a2.34,2.34,0,0,0,1.25-2.89c-.23-1.25-.47-3-.66-4.71-.16-3.08,0-3.5-.54-4.4h0a2,2,0,0,0-1.62-1.13L5.72,2C.24,2.05.38,19.64,9.1,34.84Z"/></g></g></g></g></svg>