<?xml version="1.0" encoding="utf-8"?>
<!-- Generator: Adobe Illustrator 22.1.0, SVG Export Plug-In . SVG Version: 6.00 Build 0)  -->
<svg version="1.1" id="Layer_1" xmlns="http://www.w3.org/2000/svg" xmlns:xlink="http://www.w3.org/1999/xlink" x="0px" y="0px"
	 viewBox="0 0 1328.3 305.8" style="enable-background:new 0 0 1328.3 305.8;" xml:space="preserve">
<style type="text/css">
	.st0{fill:none;stroke:#FFFFFF;stroke-width:10;stroke-miterlimit:10;}
	.st1{fill:none;stroke:#86B8C0;stroke-width:4;stroke-linecap:round;stroke-linejoin:round;}
	.st2{fill:none;stroke:#BAB9B9;stroke-width:4;stroke-linecap:round;stroke-linejoin:round;}
	.st3{fill:none;stroke:#F59950;stroke-width:4;stroke-linecap:round;stroke-linejoin:round;}
</style>
<title>Asset 3</title>
<g id="Layer_2_1_">
	<g id="transport">
		<g id="paper_plane">
			<path class="st0" d="M444-428.2L473.5-540c0.9-3-0.8-6.2-3.9-7.2c-1.6-0.5-3.3-0.2-4.6,0.6l-112.1,58.3c-2.7,1.6-3.7,5.1-2.1,7.8
				c0.5,0.9,1.2,1.6,2.1,2.1l82.6,53.5c2.7,1.6,6.2,0.8,7.9-2C443.7-427.2,443.9-427.7,444-428.2z"/>
			<polyline class="st0" points="413.3,-437.7 390.3,-420.5 390.3,-455 			"/>
			<line class="st0" x1="391.1" y1="-455.4" x2="447.8" y2="-518.1"/>
		</g>
	</g>
</g>
<g id="Layer_2_2_">
	<g id="transport_1_">
		<path class="st1" d="M201.8,160.9c0,9.1-7.4,16.5-16.5,16.5l0,0c-9.1,0-16.5-7.4-16.5-16.5"/>
		<line class="st1" x1="185.3" y1="186.8" x2="185.3" y2="177.4"/>
		<line class="st1" x1="190" y1="186.8" x2="180.6" y2="186.8"/>
		<path class="st1" d="M185.3,170.3L185.3,170.3c-5.2,0-9.4-4.2-9.4-9.4v-18.8c0-5.2,4.2-9.4,9.4-9.4l0,0c5.2,0,9.4,4.2,9.4,9.4
			v18.8C194.7,166.1,190.5,170.3,185.3,170.3z"/>
		<line class="st1" x1="192.4" y1="144.4" x2="194.7" y2="144.4"/>
		<line class="st1" x1="192.4" y1="151.5" x2="194.7" y2="151.5"/>
		<line class="st1" x1="192.4" y1="158.6" x2="194.7" y2="158.6"/>
		<line class="st1" x1="175.9" y1="144.4" x2="178.3" y2="144.4"/>
		<line class="st1" x1="175.9" y1="151.5" x2="178.3" y2="151.5"/>
		<line class="st1" x1="175.9" y1="158.6" x2="178.3" y2="158.6"/>
	</g>
</g>
<g id="Layer_2_3_">
	<g id="transport_2_">
		<polyline class="st2" points="313.3,147.7 320.4,152.4 343.9,121.8 		"/>
		<polyline class="st2" points="289.8,140.6 303.9,152.4 327.4,121.8 		"/>
	</g>
</g>
<g id="Layer_2_4_">
	<g id="transport_3_">
		<circle class="st1" cx="454" cy="116.2" r="5.9"/>
		<circle class="st1" cx="454" cy="158.6" r="5.9"/>
		<circle class="st1" cx="454" cy="137.4" r="5.9"/>
	</g>
</g>
<g id="Layer_2_5_">
	<g id="transport_4_">
		<path class="st1" d="M536.7,148.3l21.6-21.6c5.7-5.3,14.6-5,19.9,0.7c5.1,5.4,5.1,13.8,0,19.2l-25.9,25.9c-4.3,4-11,3.7-15-0.5
			c-3.8-4.1-3.8-10.4,0-14.4l25.9-25.9c3-2.5,7.4-2.2,9.9,0.8c2.3,2.6,2.2,6.5,0,9.2l-23.3,23.3"/>
	</g>
</g>
<g id="Layer_2_6_">
	<g id="transport_5_">
		<polyline class="st3" points="664.4,143.5 671.5,148.2 695,117.7 		"/>
		<polyline class="st3" points="640.9,136.5 655,148.2 678.5,117.7 		"/>
	</g>
</g>
<g id="Layer_2_7_">
	<g id="transport_6_">
		<circle class="st1" cx="775.6" cy="139.5" r="21.2"/>
		<line class="st1" x1="808.5" y1="172.4" x2="790.6" y2="154.4"/>
	</g>
</g>
<g id="Layer_2_8_">
	<g id="transport_7_">
		<path id="handset" class="st1" d="M894.2,147.6l0.1,0.2l0.1,0.3c8.7,15.2,23.8,24.3,26.7,19.6l3.5-6.7c0.3-0.6,0.3-1.3-0.1-1.9
			l0,0c-0.5-1-0.9-1-3.5-2.7c-1.3-1-2.8-2.1-3.7-2.9c-0.8-0.8-2.1-0.8-3,0l-1.5,1.4c-0.5,0.5-1.2,0.8-1.9,0.8
			c-2.1,0-6.1-5.7-8.3-9.2c-0.6-1-1.2-1.8-1.4-2.4c-0.3-0.5-0.8-1.3-1.3-2.4c-1.9-3.7-4.7-10-3.7-11.8c0.4-0.6,0.9-1.1,1.6-1.2
			l2-0.5c1.1-0.5,1.6-1.8,1.2-2.9c-0.2-1.2-0.5-3-0.7-4.7c-0.2-3.1,0-3.5-0.5-4.4l0,0c-0.3-0.6-0.9-1.1-1.6-1.1l-7.6-0.4
			C885.3,114.9,885.5,132.5,894.2,147.6z"/>
	</g>
</g>
<g id="Layer_2_9_">
	<g id="transport_8_">
		<path class="st1" d="M1052.8,114.1h37.6c1.3,0,2.4,1.1,2.4,2.4v30.6c0,1.3-1.1,2.4-2.4,2.4h-37.6c-1.3,0-2.4-1.1-2.4-2.4v-30.6
			C1050.5,115.2,1051.5,114.1,1052.8,114.1z"/>
		<polygon class="st1" points="1104.6,144.7 1092.8,140 1092.8,123.6 1104.6,118.9 		"/>
	</g>
</g>
</svg>
