<svg xmlns="http://www.w3.org/2000/svg" viewBox="0 0 15 24"><defs><style>.cls-1{fill:none;stroke:#86b8c0;stroke-linecap:round;stroke-linejoin:round;}</style></defs><title>Asset 7</title><g id="Layer_2" data-name="Layer 2"><g id="transport"><path class="cls-1" d="M14.5,12.5a7,7,0,0,1-7,7h0a7,7,0,0,1-7-7"/><line class="cls-1" x1="7.5" y1="23.5" x2="7.5" y2="19.5"/><line class="cls-1" x1="9.5" y1="23.5" x2="5.5" y2="23.5"/><path class="cls-1" d="M7.5,16.5h0a4,4,0,0,1-4-4v-8a4,4,0,0,1,4-4h0a4,4,0,0,1,4,4v8A4,4,0,0,1,7.5,16.5Z"/><line class="cls-1" x1="10.5" y1="5.5" x2="11.5" y2="5.5"/><line class="cls-1" x1="10.5" y1="8.5" x2="11.5" y2="8.5"/><line class="cls-1" x1="10.5" y1="11.5" x2="11.5" y2="11.5"/><line class="cls-1" x1="3.5" y1="5.5" x2="4.5" y2="5.5"/><line class="cls-1" x1="3.5" y1="8.5" x2="4.5" y2="8.5"/><line class="cls-1" x1="3.5" y1="11.5" x2="4.5" y2="11.5"/></g></g></svg>