<svg xmlns="http://www.w3.org/2000/svg" viewBox="0 0 36.93 58.1"><defs><style>.cls-1{fill:none;stroke:#86b8c0;stroke-linecap:round;stroke-linejoin:round;stroke-width:4px;}</style></defs><title>Asset 2</title><g id="Layer_2" data-name="Layer 2"><g id="Layer_1-2" data-name="Layer 1"><g id="Layer_2-2" data-name="Layer 2"><g id="transport"><path class="cls-1" d="M34.93,30.23A16.46,16.46,0,0,1,18.47,46.69h0A16.46,16.46,0,0,1,2,30.23"/><line class="cls-1" x1="18.47" y1="56.1" x2="18.47" y2="46.69"/><line class="cls-1" x1="23.17" y1="56.1" x2="13.76" y2="56.1"/><path class="cls-1" d="M18.47,39.64h0a9.41,9.41,0,0,1-9.41-9.41V11.41A9.41,9.41,0,0,1,18.47,2h0a9.41,9.41,0,0,1,9.41,9.41V30.23A9.42,9.42,0,0,1,18.47,39.64Z"/><line class="cls-1" x1="25.52" y1="13.76" x2="27.88" y2="13.76"/><line class="cls-1" x1="25.52" y1="20.82" x2="27.88" y2="20.82"/><line class="cls-1" x1="25.52" y1="27.88" x2="27.88" y2="27.88"/><line class="cls-1" x1="9.06" y1="13.76" x2="11.41" y2="13.76"/><line class="cls-1" x1="9.06" y1="20.82" x2="11.41" y2="20.82"/><line class="cls-1" x1="9.06" y1="27.88" x2="11.41" y2="27.88"/></g></g></g></g></svg>